<svg xmlns="http://www.w3.org/2000/svg" width="14.445" height="14.445" viewBox="0 0 14.445 14.445">
  <path id="Icon_awesome-arrow-circle-right" data-name="Icon awesome-arrow-circle-right" d="M7.785.563A7.223,7.223,0,1,1,.563,7.785,7.221,7.221,0,0,1,7.785.563ZM6.943,4.745l2.2,2.109H3.824a.7.7,0,0,0-.7.7v.466a.7.7,0,0,0,.7.7H9.142l-2.2,2.109a.7.7,0,0,0-.012,1l.32.317a.7.7,0,0,0,.987,0L12.1,8.28a.7.7,0,0,0,0-.987L8.239,3.425a.7.7,0,0,0-.987,0l-.32.317a.7.7,0,0,0,.012,1Z" transform="translate(-0.563 -0.563)" fill="#fff"/>
</svg>
