<svg xmlns="http://www.w3.org/2000/svg" width="96" height="38" viewBox="0 0 96 38"><defs><style>.a{fill:#02c998;}</style></defs><g transform="translate(-325 -4275)"><circle class="a" cx="2.5" cy="2.5" r="2.5" transform="translate(325 4275)"/><circle class="a" cx="2.5" cy="2.5" r="2.5" transform="translate(325 4297)"/><circle class="a" cx="2.5" cy="2.5" r="2.5" transform="translate(325 4286)"/><circle class="a" cx="2.5" cy="2.5" r="2.5" transform="translate(325 4308)"/><circle class="a" cx="2.5" cy="2.5" r="2.5" transform="translate(377 4275)"/><circle class="a" cx="2.5" cy="2.5" r="2.5" transform="translate(377 4297)"/><circle class="a" cx="2.5" cy="2.5" r="2.5" transform="translate(377 4286)"/><circle class="a" cx="2.5" cy="2.5" r="2.5" transform="translate(377 4308)"/><circle class="a" cx="2.5" cy="2.5" r="2.5" transform="translate(351 4275)"/><circle class="a" cx="2.5" cy="2.5" r="2.5" transform="translate(351 4297)"/><circle class="a" cx="2.5" cy="2.5" r="2.5" transform="translate(351 4286)"/><circle class="a" cx="2.5" cy="2.5" r="2.5" transform="translate(351 4308)"/><circle class="a" cx="2.5" cy="2.5" r="2.5" transform="translate(403 4275)"/><circle class="a" cx="2.5" cy="2.5" r="2.5" transform="translate(403 4297)"/><circle class="a" cx="2.5" cy="2.5" r="2.5" transform="translate(403 4286)"/><circle class="a" cx="2.5" cy="2.5" r="2.5" transform="translate(403 4308)"/><circle class="a" cx="2.5" cy="2.5" r="2.5" transform="translate(338 4275)"/><circle class="a" cx="2.5" cy="2.5" r="2.5" transform="translate(338 4297)"/><circle class="a" cx="2.5" cy="2.5" r="2.5" transform="translate(338 4286)"/><circle class="a" cx="2.5" cy="2.5" r="2.5" transform="translate(338 4308)"/><circle class="a" cx="2.5" cy="2.5" r="2.5" transform="translate(390 4275)"/><circle class="a" cx="2.5" cy="2.5" r="2.5" transform="translate(390 4297)"/><circle class="a" cx="2.5" cy="2.5" r="2.5" transform="translate(390 4286)"/><circle class="a" cx="2.5" cy="2.5" r="2.5" transform="translate(390 4308)"/><circle class="a" cx="2.5" cy="2.5" r="2.5" transform="translate(364 4275)"/><circle class="a" cx="2.5" cy="2.5" r="2.5" transform="translate(364 4297)"/><circle class="a" cx="2.5" cy="2.5" r="2.5" transform="translate(364 4286)"/><circle class="a" cx="2.5" cy="2.5" r="2.5" transform="translate(364 4308)"/><circle class="a" cx="2.5" cy="2.5" r="2.5" transform="translate(416 4275)"/><circle class="a" cx="2.5" cy="2.5" r="2.5" transform="translate(416 4297)"/><circle class="a" cx="2.5" cy="2.5" r="2.5" transform="translate(416 4286)"/><circle class="a" cx="2.5" cy="2.5" r="2.5" transform="translate(416 4308)"/></g></svg>