<svg xmlns="http://www.w3.org/2000/svg" width="199.54" height="87.855" viewBox="0 0 199.54 87.855"><defs><style>.a{fill:#0e5ba8;}.b{fill:#67a5d8;}.c{fill:#4782bd;}.d{fill:#fff;}</style></defs><g transform="translate(-486.694 -3632)"><g transform="translate(486.694 3632)"><path class="a" d="M129.1,310.5,108.274,342l17.379,8.881,21.66-40.382Z" transform="translate(-101.437 -263.026)"/><path class="b" d="M183.17,315.474l-8.5,15.91,6.389,9.2h19.871Z" transform="translate(-133.715 -265.444)"/><path class="b" d="M182.632,277.578,173.3,263.01l4.409-7.6,19.68-4.217Z" transform="translate(-133.05 -234.194)"/><path class="c" d="M140.143,263.034H121.677l-26.708-36.42,18.53-8.5Z" transform="translate(-94.969 -218.115)"/></g><g transform="translate(552.457 3665.916)"><g transform="translate(0.806 14.619)"><path class="d" d="M241.386,325q2.832,3.112,2.832,8.535,0,.838-.04,1.276h-15a5.183,5.183,0,0,0,1.795,2.812,4.965,4.965,0,0,0,3.111.977,6.728,6.728,0,0,0,2.693-.559,7.608,7.608,0,0,0,2.373-1.635l3.709,3.709a10.931,10.931,0,0,1-4.048,2.852,13.969,13.969,0,0,1-5.365.977,12.9,12.9,0,0,1-6.062-1.356,9.423,9.423,0,0,1-3.968-3.829,11.614,11.614,0,0,1-1.376-5.744,11.907,11.907,0,0,1,1.4-5.843,9.645,9.645,0,0,1,3.949-3.909,12.248,12.248,0,0,1,5.9-1.376Q238.555,321.885,241.386,325Zm-4.068,6.023a4.152,4.152,0,0,0-1.1-3.011,4.172,4.172,0,0,0-5.7-.02,5.555,5.555,0,0,0-1.5,3.031Z" transform="translate(-222.043 -317.178)"/><path class="d" d="M265.364,322.351H273.5l3.47,6.062,3.749-6.062H288.5l-6.82,10.529,7.3,11.048H280.8l-3.828-6.581-4.267,6.581h-7.818l7.339-11.048Z" transform="translate(-242.87 -317.405)"/><path class="d" d="M336.445,323.261a9.261,9.261,0,0,1,3.53,3.909,14.189,14.189,0,0,1,.039,11.586,8.978,8.978,0,0,1-3.47,3.829,9.894,9.894,0,0,1-5.205,1.356,8.566,8.566,0,0,1-3.689-.778,7.688,7.688,0,0,1-2.811-2.253v10.529h-7.1V322.124h7.1v2.792a7.609,7.609,0,0,1,6.341-3.031A9.969,9.969,0,0,1,336.445,323.261Zm-3.65,13.461a5.651,5.651,0,0,0,1.3-3.869,5.726,5.726,0,0,0-1.3-3.888,4.25,4.25,0,0,0-3.37-1.5,4.147,4.147,0,0,0-3.31,1.5,5.781,5.781,0,0,0-1.276,3.888,5.7,5.7,0,0,0,1.276,3.869,4.171,4.171,0,0,0,3.31,1.475A4.276,4.276,0,0,0,332.8,336.722Z" transform="translate(-268.564 -317.178)"/><path class="d" d="M385.126,323.261a10.062,10.062,0,0,1,4.148,3.869,12.069,12.069,0,0,1,0,11.567,10.055,10.055,0,0,1-4.148,3.868,14.573,14.573,0,0,1-12.364,0,9.919,9.919,0,0,1-4.128-3.868,12.215,12.215,0,0,1,0-11.567,9.926,9.926,0,0,1,4.128-3.869,14.578,14.578,0,0,1,12.364,0Zm-9.532,5.844a5.7,5.7,0,0,0-1.276,3.868,5.761,5.761,0,0,0,1.276,3.909,4.214,4.214,0,0,0,3.35,1.475,4.262,4.262,0,0,0,3.391-1.475,5.767,5.767,0,0,0,1.276-3.909,5.651,5.651,0,0,0-1.3-3.868,4.276,4.276,0,0,0-3.37-1.476A4.214,4.214,0,0,0,375.595,329.1Z" transform="translate(-292.598 -317.178)"/><path class="d" d="M430.1,322.8a8.122,8.122,0,0,1,4.048-1v6.5a10.579,10.579,0,0,0-1.077-.04A6.563,6.563,0,0,0,429,329.446a4.507,4.507,0,0,0-1.795,3.21v11.008h-7.1V322.087h7.1v3.589A7.774,7.774,0,0,1,430.1,322.8Z" transform="translate(-318.329 -317.141)"/><path class="d" d="M465.636,338.132a10.68,10.68,0,0,1-2.752,1.057,13.278,13.278,0,0,1-3.151.379,7.284,7.284,0,0,1-5.165-1.835,6.575,6.575,0,0,1-1.974-5.066v-9.253H449.6v-4.706h2.991v-5.983h7.06v5.983h5.583v4.706h-5.583v8.136q0,2.273,1.875,2.273a6.934,6.934,0,0,0,2.752-.717Z" transform="translate(-332.666 -312.726)"/></g><g transform="translate(0 0)"><path class="d" d="M220.474,284.319h1.6l5.366,13.426,5.345-13.426h1.573l-6.185,15.064h-1.552Z" transform="translate(-220.474 -284.297)"/><path class="d" d="M252.389,284.319h1.487v15.064h-1.487Z" transform="translate(-235.989 -284.297)"/><path class="d" d="M264.508,284.319h10.086v1.336h-8.6v5.388h7.694v1.336h-7.694v5.668h8.879v1.336H264.508Z" transform="translate(-241.88 -284.297)"/><path class="d" d="M287.614,284.277h11.444v1.358H294.08v13.728h-1.487V285.635h-4.978Z" transform="translate(-253.113 -284.277)"/><path class="d" d="M325.884,284.319h1.466v15.064h-1.573l-9.332-12.758v12.758h-1.487V284.319h1.573l9.353,12.758Z" transform="translate(-266.405 -284.297)"/><path class="d" d="M357.448,299.383l-1.789-4.009H347.3l-1.767,4.009h-1.6l6.788-15.064h1.552l6.788,15.064Zm-9.569-5.345h7.2l-3.621-8.146Z" transform="translate(-280.492 -284.297)"/><path class="d" d="M378.2,284.277h1.854l5.9,11.314,5.84-11.314h1.853v15.086h-1.379l-.022-13.016-5.9,11.4h-.819l-5.926-11.4v13.016h-1.4Z" transform="translate(-297.148 -284.277)"/></g></g></g></svg>