<svg xmlns="http://www.w3.org/2000/svg" width="92.038" height="20.542" viewBox="0 0 92.038 20.542">
  <g id="Group_66" data-name="Group 66" transform="translate(-500.265 -271.822)">
    <text id="TÌM_KIẾM:" data-name="TÌM KIẾM:" transform="translate(526.303 286.822)" fill="#003060" font-size="14" font-family="Roboto-Bold, Roboto" font-weight="700"><tspan x="0" y="0">TÌM KIẾM:</tspan></text>
    <path id="Icon_awesome-search" data-name="Icon awesome-search" d="M20.041,17.569l-3.957-3.957a.952.952,0,0,0-.675-.278h-.647a8.251,8.251,0,1,0-1.429,1.429v.647a.952.952,0,0,0,.278.675l3.957,3.957a.949.949,0,0,0,1.345,0l1.123-1.123a.957.957,0,0,0,0-1.349ZM8.255,13.335a5.08,5.08,0,1,1,5.08-5.08A5.077,5.077,0,0,1,8.255,13.335Z" transform="translate(500.265 272.044)" fill="#003060"/>
    <line id="Line_38" data-name="Line 38" y2="10.178" transform="translate(523.5 277.322)" fill="none" stroke="#003060" stroke-width="0.5"/>
  </g>
</svg>
