<svg xmlns="http://www.w3.org/2000/svg" width="16.067" height="17.138" viewBox="0 0 16.067 17.138"><defs><style>.a{fill:#fff;}</style></defs><path class="a" d="M6.784,7.5H8.926V9.64H6.784ZM10,7.5h2.142V9.64H10Zm3.213,0h2.142V9.64H13.211ZM3.57,13.925H5.713v2.142H3.57Zm3.213,0H8.926v2.142H6.784Zm3.213,0h2.142v2.142H10ZM6.784,10.711H8.926v2.142H6.784Zm3.213,0h2.142v2.142H10Zm3.213,0h2.142v2.142H13.211Zm-9.64,0H5.713v2.142H3.57Zm11.782-9.64V2.142H13.211V1.071h-7.5V2.142H3.57V1.071H1.428V18.209H17.5V1.071H15.353Zm1.071,16.067H2.5V5.356H16.424V17.138Z" transform="translate(-1.428 -1.071)"/></svg>