<svg xmlns="http://www.w3.org/2000/svg" width="24.009" height="19.995" viewBox="0 0 24.009 19.995"><defs><style>.a{fill:none;stroke:#ffd833;stroke-linecap:round;stroke-linejoin:round;stroke-width:1.667px;}</style></defs><g transform="translate(0.833 0.882)"><path class="a" d="M17.082,18.593V16.562A4.062,4.062,0,0,0,13.02,12.5H4.9A4.062,4.062,0,0,0,.833,16.562v2.031" transform="translate(-0.833 -0.313)"/><path class="a" d="M12.291,6.562A4.062,4.062,0,1,1,8.229,2.5a4.062,4.062,0,0,1,4.062,4.062Z" transform="translate(-0.104 -2.5)"/><path class="a" d="M19.713,18.57V16.538a4.062,4.062,0,0,0-3.047-3.93" transform="translate(2.629 -0.29)"/><path class="a" d="M13.333,2.608a4.062,4.062,0,0,1,0,7.87" transform="translate(1.9 -2.476)"/></g></svg>