<svg xmlns="http://www.w3.org/2000/svg" width="72.803" height="16" viewBox="0 0 72.803 16"><defs><style>.a,.b{fill:#003060;}.a{font-size:12px;font-family:Roboto-Bold, Roboto;font-weight:700;}.c{fill:none;stroke:#003060;stroke-width:0.5px;}</style></defs><g transform="translate(-510.5 -273.822)"><text class="a" transform="translate(526.303 286.822)"><tspan x="0" y="0">TÌM KIẾM:</tspan></text><path class="b" d="M10.932,9.584,8.774,7.425a.519.519,0,0,0-.368-.152H8.053a4.5,4.5,0,1,0-.779.779v.353a.519.519,0,0,0,.152.368l2.158,2.158a.517.517,0,0,0,.734,0l.613-.613a.522.522,0,0,0,0-.736ZM4.5,7.274A2.771,2.771,0,1,1,7.274,4.5,2.769,2.769,0,0,1,4.5,7.274Z" transform="translate(510.5 277.28)"/><line class="c" y2="7" transform="translate(523.5 279.322)"/></g></svg>