<svg xmlns="http://www.w3.org/2000/svg" width="69.942" height="14.5" viewBox="0 0 69.942 14.5"><defs><style>.a{fill:#fff;}</style></defs><g transform="translate(-22.829 -219.27)"><path class="a" d="M25.111,260.328l4.64-2.622s-1.019-1.754-3.527-.717-2.6,6.885,1.981,6.47a3.776,3.776,0,0,0,2.754-2.98l1.415.17s-.509,3.471-3.49,4.15-6.757-1.155-5.942-5.923a4.7,4.7,0,0,1,4.942-3.772A4.963,4.963,0,0,1,32,258.064l-6.13,3.508Z" transform="translate(0 -31.401)"/><path class="a" d="M112.251,256.823s-4.791-.83-6.111,3.339c-.887,2.98,1.094,6.621,6.13,6.13v-1.547s-4.206.679-4.6-2.924c-.189-2.075,1.075-3.508,4.6-3.433Z" transform="translate(-72.843 -32.857)"/><path class="a" d="M167.652,258.424l-1.641-1.151s-2.245,1.716-1.113,5.263a4.717,4.717,0,0,0,6.093,2.886c2.264-.717,3.754-3.094,2.98-6.074s-4.055-3.565-5.338-3.32v2.037a2.937,2.937,0,0,1,3.376,1.6,3.054,3.054,0,0,1-1.7,3.924,2.859,2.859,0,0,1-3.131-4.546C167.369,258.82,167.652,258.424,167.652,258.424Z" transform="translate(-124.245 -32.175)"/><path class="a" d="M153.818,219.27l-2.094,2.867-3.961.264,5.734,3.716Z" transform="translate(-109.506 0)"/><path class="a" d="M250.4,265.508v-5.093c0-1.339.17-4.791,4.32-4.565a3.28,3.28,0,0,1,2.4,1.471,3.62,3.62,0,0,1,4.188-1.283,3.533,3.533,0,0,1,2.49,3.527c.094.924-.019,5.9-.019,5.9H262.1v-5.753a2.087,2.087,0,0,0-2-2.282,2.055,2.055,0,0,0-2.169,1.547,13.057,13.057,0,0,0-.038,1.377v5.112h-1.6v-6.357a1.986,1.986,0,0,0-2.3-1.679,1.945,1.945,0,0,0-1.924,1.773v6.281Z" transform="translate(-199.469 -32.054)"/><path class="a" d="M365.143,256.69l-1.717.057s2.4,6.319,2.679,7.187.66,2.414,1.566,2.6c.754.17,1.188-.358,1.452-1.056s3.32-8.733,3.32-8.733h-1.811l-2.7,7.545Z" transform="translate(-298.535 -32.799)"/><rect class="a" width="1.679" height="9.601" transform="translate(74.493 223.929)"/><path class="a" d="M466.207,260.38l4.659-2.641a2.981,2.981,0,0,0-4.32-.132c-.905.754-1.981,4.263.943,5.753a3.34,3.34,0,0,0,4.565-2.792l1.415.189s-.415,3.207-3.226,4.036a4.847,4.847,0,0,1-6.338-4.621,4.771,4.771,0,0,1,6.6-4.659,4.593,4.593,0,0,1,2.565,2.584l-6.112,3.508Z" transform="translate(-386.603 -31.453)"/><path class="a" d="M553.754,236.395l-1.7-.019s.038,7.62.038,8.752.056,3.093,4.546,3.376v-1.622s-2.226.132-2.754-1.075a4.211,4.211,0,0,1-.113-1.66v-3.622h2.867v-1.641h-2.886Z" transform="translate(-463.869 -14.994)"/><path class="a" d="M442.5,229.483a.9.9,0,1,1-.9-.9A.9.9,0,0,1,442.5,229.483Z" transform="translate(-366.276 -8.167)"/><path class="a" d="M188.868,278.312a2.377,2.377,0,1,1-2.377-2.377A2.377,2.377,0,0,1,188.868,278.312Z" transform="translate(-141.368 -49.667)"/></g></svg>