<svg xmlns="http://www.w3.org/2000/svg" width="166" height="73.089" viewBox="0 0 166 73.089"><defs><style>.a{fill:#0e5ba8;}.b{fill:#67a5d8;}.c{fill:#4782bd;}.d{fill:#fff;}</style></defs><g transform="translate(-486.694 -3632)"><g transform="translate(486.694 3632)"><path class="a" d="M125.6,310.5l-17.329,26.206,14.458,7.389,18.02-33.594Z" transform="translate(-102.586 -271.006)"/><path class="b" d="M181.741,315.474l-7.07,13.236,5.316,7.654h16.531Z" transform="translate(-140.599 -273.853)"/><path class="b" d="M181.064,273.143,173.3,261.024l3.668-6.325,16.372-3.508Z" transform="translate(-139.816 -237.051)"/><path class="c" d="M132.55,255.483H117.188l-22.219-30.3,15.415-7.07Z" transform="translate(-94.969 -218.115)"/></g><g transform="translate(541.403 3660.215)"><g transform="translate(0.671 12.162)"><path class="d" d="M238.135,324.473a10.155,10.155,0,0,1,2.356,7.1q0,.7-.033,1.062H227.982a4.312,4.312,0,0,0,1.493,2.339,4.13,4.13,0,0,0,2.588.813,5.6,5.6,0,0,0,2.24-.465,6.329,6.329,0,0,0,1.974-1.36l3.086,3.085A9.093,9.093,0,0,1,236,339.421a11.621,11.621,0,0,1-4.463.813,10.729,10.729,0,0,1-5.043-1.128,7.839,7.839,0,0,1-3.3-3.185,9.662,9.662,0,0,1-1.145-4.778,9.9,9.9,0,0,1,1.161-4.861,8.023,8.023,0,0,1,3.285-3.252,10.189,10.189,0,0,1,4.911-1.144A8.645,8.645,0,0,1,238.135,324.473Zm-3.384,5.01a3.454,3.454,0,0,0-.912-2.5,3.471,3.471,0,0,0-4.745-.017,4.621,4.621,0,0,0-1.244,2.521Z" transform="translate(-222.043 -317.97)"/><path class="d" d="M265.284,322.351h6.769l2.887,5.043,3.119-5.043h6.47l-5.674,8.759,6.072,9.191h-6.8l-3.185-5.475-3.55,5.475h-6.5l6.105-9.191Z" transform="translate(-246.571 -318.236)"/><path class="d" d="M333.3,323.029a7.7,7.7,0,0,1,2.937,3.252,11.8,11.8,0,0,1,.033,9.639,7.469,7.469,0,0,1-2.886,3.185,8.231,8.231,0,0,1-4.33,1.128,7.126,7.126,0,0,1-3.069-.647,6.4,6.4,0,0,1-2.339-1.875v8.759H317.74V322.084h5.906v2.323a6.33,6.33,0,0,1,5.275-2.522A8.293,8.293,0,0,1,333.3,323.029Zm-3.036,11.2a4.7,4.7,0,0,0,1.078-3.219,4.764,4.764,0,0,0-1.078-3.235,3.536,3.536,0,0,0-2.8-1.244,3.45,3.45,0,0,0-2.754,1.244,4.809,4.809,0,0,0-1.061,3.235,4.746,4.746,0,0,0,1.061,3.219,3.47,3.47,0,0,0,2.754,1.227A3.557,3.557,0,0,0,330.265,334.228Z" transform="translate(-276.83 -317.97)"/><path class="d" d="M382.11,323.029a8.371,8.371,0,0,1,3.451,3.219,10.041,10.041,0,0,1,0,9.623,8.365,8.365,0,0,1-3.451,3.218,12.124,12.124,0,0,1-10.286,0,8.252,8.252,0,0,1-3.434-3.218,10.162,10.162,0,0,1,0-9.623,8.258,8.258,0,0,1,3.434-3.219,12.128,12.128,0,0,1,10.286,0Zm-7.93,4.862a4.741,4.741,0,0,0-1.062,3.218,4.793,4.793,0,0,0,1.062,3.252,3.506,3.506,0,0,0,2.787,1.227,3.546,3.546,0,0,0,2.821-1.227,4.8,4.8,0,0,0,1.061-3.252,4.7,4.7,0,0,0-1.078-3.218,3.558,3.558,0,0,0-2.8-1.228A3.505,3.505,0,0,0,374.18,327.891Z" transform="translate(-305.134 -317.97)"/><path class="d" d="M428.422,322.637a6.757,6.757,0,0,1,3.368-.829v5.408a8.808,8.808,0,0,0-.9-.033,5.46,5.46,0,0,0-3.384.979,3.75,3.75,0,0,0-1.493,2.671v9.158H420.11V322.04h5.906v2.986A6.467,6.467,0,0,1,428.422,322.637Z" transform="translate(-335.437 -317.926)"/><path class="d" d="M462.941,333.862a8.886,8.886,0,0,1-2.29.879,11.046,11.046,0,0,1-2.621.315,6.059,6.059,0,0,1-4.3-1.526,5.47,5.47,0,0,1-1.642-4.214v-7.7H449.6V317.7h2.488v-4.977h5.873V317.7h4.645v3.915h-4.645v6.769q0,1.891,1.56,1.891a5.768,5.768,0,0,0,2.289-.6Z" transform="translate(-352.322 -312.726)"/></g><g transform="translate(0 0)"><path class="d" d="M220.474,284.319H221.8l4.464,11.17,4.446-11.17h1.309l-5.145,12.532h-1.291Z" transform="translate(-220.474 -284.301)"/><path class="d" d="M252.389,284.319h1.237v12.532h-1.237Z" transform="translate(-238.745 -284.301)"/><path class="d" d="M264.508,284.319H272.9v1.112h-7.154v4.482h6.4v1.111h-6.4v4.715h7.387v1.112h-8.623Z" transform="translate(-245.684 -284.301)"/><path class="d" d="M287.614,284.277h9.52v1.129h-4.142v11.421h-1.237V285.406h-4.142Z" transform="translate(-258.912 -284.277)"/><path class="d" d="M324.047,284.319h1.219v12.532h-1.309l-7.763-10.613v10.613h-1.237V284.319h1.309l7.781,10.613Z" transform="translate(-274.566 -284.301)"/><path class="d" d="M355.177,296.851l-1.488-3.335h-6.956l-1.47,3.335h-1.327l5.647-12.532h1.291l5.647,12.532Zm-7.96-4.446h5.988l-3.012-6.777Z" transform="translate(-291.156 -284.301)"/><path class="d" d="M378.2,284.277h1.542l4.912,9.413,4.858-9.413h1.542v12.55h-1.147L389.888,286l-4.912,9.484h-.681L379.364,286v10.829H378.2Z" transform="translate(-310.772 -284.277)"/></g></g></g></svg>